# Wavefront Obj file
# 
# verts: 48 uv-s: 96
mtllib lights_text.mtl

g Cube.005_Cube.006

v 3.867195 -0.664346 0.864060
v 3.867195 -0.560993 0.864060
v 3.867195 -0.664346 0.715094
v 3.867195 -0.560993 0.715094
v 3.906969 -0.664346 0.864060
v 3.906969 -0.560993 0.864060
v 3.906969 -0.664346 0.715094
v 3.906969 -0.560993 0.715094
v 3.867195 -0.664346 -0.864060
v 3.867195 -0.560993 -0.864060
v 3.867195 -0.664346 -0.715094
v 3.867195 -0.560993 -0.715094
v 3.906969 -0.664346 -0.864060
v 3.906969 -0.560993 -0.864060
v 3.906969 -0.664346 -0.715094
v 3.906969 -0.560993 -0.715094
# 16 positions

vt 0.221665 0.882351
vt 0.005000 0.882351
vt 0.005000 0.965732
vt 0.221665 0.965732
vt 0.457243 0.005000
vt 0.673907 0.005000
vt 0.673907 0.317286
vt 0.457243 0.317286
vt 0.995000 0.604222
vt 0.778335 0.604222
vt 0.778335 0.687602
vt 0.995000 0.687602
vt 0.231121 0.687602
vt 0.231121 0.604222
vt 0.543407 0.604222
vt 0.543407 0.687602
vt 0.995000 0.594893
vt 0.995000 0.511512
vt 0.778335 0.511512
vt 0.778335 0.594893
vt 0.552214 0.823798
vt 0.552214 0.511512
vt 0.768878 0.511512
vt 0.768878 0.823798
vt 0.995000 0.780312
vt 0.995000 0.696931
vt 0.778335 0.696931
vt 0.778335 0.780312
vt 0.317286 0.780312
vt 0.005000 0.780312
vt 0.005000 0.696931
vt 0.317286 0.696931
# 32 texture coordinates

vn 0.000000 0.000000 -1.000000
vn 1.000000 0.000000 0.000000
vn 0.000000 0.000000 1.000000
vn 0.000000 1.000000 0.000000
# 4 normals

usemtl None
f 3/1/1 4/2/1 8/3/1 7/4/1
f 7/5/2 8/6/2 6/7/2 5/8/2
f 5/9/3 6/10/3 2/11/3 1/12/3
f 8/13/4 4/14/4 2/15/4 6/16/4
f 11/17/3 15/18/3 16/19/3 12/20/3
f 15/21/2 13/22/2 14/23/2 16/24/2
f 13/25/1 9/26/1 10/27/1 14/28/1
f 16/29/4 14/30/4 10/31/4 12/32/4

g Cube.004_Cube.005

v 3.867195 -0.491129 0.864060
v 3.867195 -0.387776 0.864060
v 3.867195 -0.491129 0.715094
v 3.867195 -0.387776 0.715094
v 3.906969 -0.491129 0.864060
v 3.906969 -0.387776 0.864060
v 3.906969 -0.491129 0.715094
v 3.906969 -0.387776 0.715094
v 3.867195 -0.491129 -0.864060
v 3.867195 -0.387776 -0.864060
v 3.867195 -0.491129 -0.715094
v 3.867195 -0.387776 -0.715094
v 3.906969 -0.491129 -0.864060
v 3.906969 -0.387776 -0.864060
v 3.906969 -0.491129 -0.715094
v 3.906969 -0.387776 -0.715094
# 16 positions

vt 0.447786 0.882351
vt 0.231121 0.882351
vt 0.231121 0.965732
vt 0.447786 0.965732
vt 0.683364 0.005000
vt 0.900029 0.005000
vt 0.900029 0.317286
vt 0.683364 0.317286
vt 0.995000 0.418802
vt 0.778335 0.418802
vt 0.778335 0.502183
vt 0.995000 0.502183
vt 0.231121 0.594893
vt 0.231121 0.511512
vt 0.543407 0.511512
vt 0.543407 0.594893
vt 0.673908 0.915985
vt 0.673908 0.832604
vt 0.457243 0.832604
vt 0.457243 0.915985
vt 0.005000 0.638378
vt 0.005000 0.326092
vt 0.221665 0.326092
vt 0.221665 0.638378
vt 0.221665 0.873022
vt 0.221665 0.789641
vt 0.005000 0.789641
vt 0.005000 0.873022
vt 0.769529 0.502183
vt 0.457243 0.502183
vt 0.457243 0.418802
vt 0.769529 0.418802
# 32 texture coordinates

vn 0.000000 0.000000 -1.000000
vn 1.000000 0.000000 0.000000
vn 0.000000 0.000000 1.000000
vn 0.000000 1.000000 0.000000
# 4 normals

usemtl None
f 19/33/5 20/34/5 24/35/5 23/36/5
f 23/37/6 24/38/6 22/39/6 21/40/6
f 21/41/7 22/42/7 18/43/7 17/44/7
f 24/45/8 20/46/8 18/47/8 22/48/8
f 27/49/7 31/50/7 32/51/7 28/52/7
f 31/53/6 29/54/6 30/55/6 32/56/6
f 29/57/5 25/58/5 26/59/5 30/60/5
f 32/61/8 30/62/8 26/63/8 28/64/8

g Cube.003_Cube.004

v 3.867195 -0.353905 0.864060
v 3.867195 -0.250552 0.864060
v 3.867195 -0.353905 0.715094
v 3.867195 -0.250552 0.715094
v 3.906969 -0.353905 0.864060
v 3.906969 -0.250552 0.864060
v 3.906969 -0.353905 0.715094
v 3.906969 -0.250552 0.715094
v 3.867195 -0.353905 -0.864060
v 3.867195 -0.250552 -0.864060
v 3.867195 -0.353905 -0.715094
v 3.867195 -0.250552 -0.715094
v 3.906969 -0.353905 -0.864060
v 3.906969 -0.250552 -0.864060
v 3.906969 -0.353905 -0.715094
v 3.906969 -0.250552 -0.715094
# 16 positions

vt 0.900029 0.832604
vt 0.683364 0.832604
vt 0.683364 0.915985
vt 0.900029 0.915985
vt 0.231121 0.005000
vt 0.447786 0.005000
vt 0.447786 0.317286
vt 0.231121 0.317286
vt 0.542757 0.696931
vt 0.326092 0.696931
vt 0.326092 0.780312
vt 0.542757 0.780312
vt 0.552214 0.409473
vt 0.552214 0.326092
vt 0.864500 0.326092
vt 0.864500 0.409473
vt 0.447786 0.873022
vt 0.447786 0.789641
vt 0.231121 0.789641
vt 0.231121 0.873022
vt 0.005000 0.317286
vt 0.005000 0.005000
vt 0.221664 0.005000
vt 0.221664 0.317286
vt 0.447786 0.502183
vt 0.447786 0.418802
vt 0.231121 0.418802
vt 0.231121 0.502183
vt 0.543407 0.409473
vt 0.231121 0.409473
vt 0.231121 0.326092
vt 0.543407 0.326092
# 32 texture coordinates

vn 0.000000 0.000000 -1.000000
vn 1.000000 0.000000 0.000000
vn 0.000000 0.000000 1.000000
vn 0.000000 1.000000 0.000000
# 4 normals

usemtl None
f 35/65/9 36/66/9 40/67/9 39/68/9
f 39/69/10 40/70/10 38/71/10 37/72/10
f 37/73/11 38/74/11 34/75/11 33/76/11
f 40/77/12 36/78/12 34/79/12 38/80/12
f 43/81/11 47/82/11 48/83/11 44/84/11
f 47/85/10 45/86/10 46/87/10 48/88/10
f 45/89/9 41/90/9 42/91/9 46/92/9
f 48/93/12 46/94/12 42/95/12 44/96/12

# 24 faces
