# Wavefront Obj file
# 
# verts: 12 uv-s: 24
mtllib Okna.mtl

g Cube

v -8.301530 0.031838 2.662539
v -9.965114 5.356917 2.662539
v -8.301530 0.031838 -2.662539
v -9.965114 5.356917 -2.662539
v 10.329162 0.031838 2.662539
v 8.564857 5.356917 2.662539
v 10.329162 0.031838 -2.662539
v 8.564857 5.356917 -2.662539
v -8.301530 0.109252 -2.136137
v -8.301530 0.109252 2.136137
v -8.301530 4.381526 2.136137
v -8.301530 4.381526 -2.136137
# 12 positions

vt 0.982256 0.251286
vt 0.743858 0.251286
vt 0.787525 0.274852
vt 0.978790 0.274852
vt 0.243398 0.079477
vt 0.005000 0.005000
vt 0.005000 0.834566
vt 0.243398 0.913551
vt 0.743858 0.243398
vt 0.995000 0.243398
vt 0.995000 0.005000
vt 0.743858 0.005000
vt 0.489684 0.005000
vt 0.251286 0.083986
vt 0.251286 0.913551
vt 0.489684 0.839075
vt 0.497572 0.834566
vt 0.497572 0.005000
vt 0.735970 0.005000
vt 0.735970 0.834566
vt 0.787525 0.466117
vt 0.978790 0.466117
vt 0.743858 0.489684
vt 0.982256 0.489684
# 24 texture coordinates

vn -0.569662 -0.098744 -0.815926
vn 0.000000 0.000000 -1.000000
vn 0.949255 0.314507 0.000000
vn 0.000000 0.000000 1.000000
vn 0.000000 1.000000 0.000000
vn -1.000000 0.000000 0.000000
vn -0.505792 -0.862656 0.000000
vn -0.569662 -0.098744 0.815926
# 8 normals

usemtl Material
f 1/1/1 2/2/1 11/3/1 10/4/1
f 3/5/2 4/6/2 8/7/2 7/8/2
f 7/9/3 8/10/3 6/11/3 5/12/3
f 5/13/4 6/14/4 2/15/4 1/16/4
f 8/17/5 4/18/5 2/19/5 6/20/5
f 10/4/6 11/3/6 12/21/6 9/22/6
f 2/2/7 4/23/7 12/21/7 11/3/7
f 3/24/6 1/1/6 10/4/6 9/22/6
f 4/23/8 3/24/8 9/22/8 12/21/8

# 9 faces
